<?xml version="1.0" encoding="UTF-8" standalone="no"?>
<!-- Created with Inkscape (http://www.inkscape.org/) -->

<svg
   xmlns:dc="http://purl.org/dc/elements/1.1/"
   xmlns:cc="http://creativecommons.org/ns#"
   xmlns:rdf="http://www.w3.org/1999/02/22-rdf-syntax-ns#"
   xmlns:svg="http://www.w3.org/2000/svg"
   xmlns="http://www.w3.org/2000/svg"
   xmlns:sodipodi="http://sodipodi.sourceforge.net/DTD/sodipodi-0.dtd"
   xmlns:inkscape="http://www.inkscape.org/namespaces/inkscape"
   width="211.72964mm"
   height="120.85523mm"
   viewBox="0 0 211.72964 120.85525"
   version="1.1"
   id="svg8"
   inkscape:version="0.92.5 (2060ec1f9f, 2020-04-08)"
   sodipodi:docname="ocarina-teorica.svg">
  <defs
     id="defs2">
    <inkscape:path-effect
       effect="bspline"
       id="path-effect872"
       is_visible="true"
       weight="33.333333"
       steps="2"
       helper_size="0"
       apply_no_weight="true"
       apply_with_weight="true"
       only_selected="false" />
    <inkscape:path-effect
       effect="bspline"
       id="path-effect868"
       is_visible="true"
       weight="33.333333"
       steps="2"
       helper_size="0"
       apply_no_weight="true"
       apply_with_weight="true"
       only_selected="false" />
    <inkscape:path-effect
       effect="bspline"
       id="path-effect864"
       is_visible="true"
       weight="33.333333"
       steps="2"
       helper_size="0"
       apply_no_weight="true"
       apply_with_weight="true"
       only_selected="false" />
    <inkscape:path-effect
       effect="bspline"
       id="path-effect853"
       is_visible="true"
       weight="33.333333"
       steps="2"
       helper_size="0"
       apply_no_weight="true"
       apply_with_weight="true"
       only_selected="false" />
    <inkscape:path-effect
       effect="bspline"
       id="path-effect838"
       is_visible="true"
       weight="33.333333"
       steps="2"
       helper_size="0"
       apply_no_weight="true"
       apply_with_weight="true"
       only_selected="false" />
    <inkscape:path-effect
       only_selected="false"
       apply_with_weight="true"
       apply_no_weight="true"
       helper_size="0"
       steps="2"
       weight="33.333333"
       is_visible="true"
       id="path-effect1136"
       effect="bspline" />
    <inkscape:path-effect
       effect="bspline"
       id="path-effect1132"
       is_visible="true"
       weight="33.333333"
       steps="2"
       helper_size="0"
       apply_no_weight="true"
       apply_with_weight="true"
       only_selected="false" />
    <inkscape:path-effect
       only_selected="false"
       apply_with_weight="true"
       apply_no_weight="true"
       helper_size="0"
       steps="2"
       weight="33.333333"
       is_visible="true"
       id="path-effect1041"
       effect="bspline" />
    <inkscape:path-effect
       only_selected="false"
       apply_with_weight="true"
       apply_no_weight="true"
       helper_size="0"
       steps="2"
       weight="33.333333"
       is_visible="true"
       id="path-effect985"
       effect="bspline" />
    <inkscape:path-effect
       effect="bspline"
       id="path-effect977"
       is_visible="true"
       weight="33.333333"
       steps="2"
       helper_size="0"
       apply_no_weight="true"
       apply_with_weight="true"
       only_selected="false" />
  </defs>
  <sodipodi:namedview
     id="base"
     pagecolor="#ffffff"
     bordercolor="#666666"
     borderopacity="1.0"
     inkscape:pageopacity="0.0"
     inkscape:pageshadow="2"
     inkscape:zoom="0.59890685"
     inkscape:cx="489.03814"
     inkscape:cy="68.188784"
     inkscape:document-units="mm"
     inkscape:current-layer="layer1"
     showgrid="false"
     inkscape:window-width="1848"
     inkscape:window-height="1016"
     inkscape:window-x="72"
     inkscape:window-y="27"
     inkscape:window-maximized="1"
     showguides="false" />
  <metadata
     id="metadata5">
    <rdf:RDF>
      <cc:Work
         rdf:about="">
        <dc:format>image/svg+xml</dc:format>
        <dc:type
           rdf:resource="http://purl.org/dc/dcmitype/StillImage" />
        <dc:title></dc:title>
      </cc:Work>
    </rdf:RDF>
  </metadata>
  <g
     inkscape:label="Camada 1"
     inkscape:groupmode="layer"
     id="layer1"
     transform="translate(31.824443,-40.811225)">
    <path
       style="fill:#ff0000;fill-opacity:1;stroke:none;stroke-width:2;stroke-linecap:round;stroke-linejoin:round;stroke-miterlimit:4;stroke-dasharray:none;stroke-opacity:1;paint-order:markers fill stroke"
       d="m -142.91454,42.352831 a 50,50 0 0 0 -50.00005,50.000048 50,50 0 0 0 50.00005,49.999531 50,50 0 0 0 50.000038,-49.999531 V 42.352831 Z"
       id="circle841"
       inkscape:connector-curvature="0" />
    <circle
       style="fill:#ff0000;fill-opacity:1;stroke:none;stroke-width:2;stroke-linecap:round;stroke-linejoin:round;stroke-miterlimit:4;stroke-dasharray:none;stroke-opacity:1;paint-order:markers fill stroke"
       id="path834"
       cx="-142.91441"
       cy="92.352623"
       r="50" />
    <rect
       y="37.102631"
       x="-114.95205"
       height="18"
       width="50.579594"
       id="rect866-2"
       style="fill:#787878;fill-opacity:1;stroke:none;stroke-width:1.20693517;stroke-linecap:round;stroke-linejoin:round;stroke-miterlimit:4;stroke-dasharray:none;stroke-opacity:1;paint-order:markers fill stroke"
       ry="3.8125801" />
    <path
       style="fill:#787878;fill-opacity:1;stroke:none;stroke-width:2;stroke-linecap:round;stroke-linejoin:round;stroke-miterlimit:4;stroke-dasharray:none;stroke-opacity:1;paint-order:markers fill stroke"
       d="m -142.91454,42.352831 a 50,50 0 0 0 -50.00005,50.000048 50,50 0 0 0 50.00005,49.999531 50,50 0 0 0 50.000038,-49.999531 V 42.352831 Z m 0,7.4998 h 42.50025 v 42.500248 a 42.500176,42.500176 0 0 1 -42.50025,42.499731 42.500176,42.500176 0 0 1 -42.50025,-42.499731 42.500176,42.500176 0 0 1 42.50025,-42.500248 z"
       id="path861"
       inkscape:connector-curvature="0" />
    <path
       style="fill:#787878;fill-opacity:1;stroke:none;stroke-width:0.26458332px;stroke-linecap:butt;stroke-linejoin:miter;stroke-opacity:1"
       d="m 136.92937,102.98467 c -0.56169,-0.80874 -0.47183,-6.784657 -1.57263,-12.82777 -1.10081,-6.043113 -3.39243,-12.154099 -5.39184,-16.063063 -1.99941,-3.908964 -3.70686,-5.616407 -4.83017,-6.896995 -1.12331,-1.280587 -1.6625,-2.134293 -0.35944,-2.650973 1.30305,-0.51668 4.44852,-0.696421 7.03198,-0.651478 2.58346,0.04494 4.60556,0.314557 5.81857,1.931806 1.213,1.617249 1.61743,4.583071 1.86457,9.683072 0.24715,5.100001 0.337,12.333455 -0.22462,18.129697 -0.56162,5.796241 -1.77474,10.154454 -2.33642,9.345704 z"
       id="path975"
       inkscape:connector-curvature="0"
       inkscape:path-effect="#path-effect977"
       inkscape:original-d="m 136.27781,108.15211 c 0.0901,-5.97618 0.17999,-11.952093 0.26959,-17.927745 -2.29115,-6.110697 -4.58277,-12.221683 -6.87455,-18.332127 -1.7071,-1.707628 -3.41454,-3.415074 -5.12221,-5.122214 -0.53891,-0.853966 -1.0781,-1.707668 -1.61754,-2.561106 3.14523,-0.179977 6.2907,-0.359716 9.43565,-0.539181 2.02202,0.269304 4.04412,0.538917 6.06578,0.808771 0.40461,2.964897 0.80904,5.93072 1.21316,8.896474 0.0901,7.234285 0.17999,14.467739 0.26959,21.702006 -1.21294,4.358267 -2.42605,8.716482 -3.63947,13.075122 z"
       transform="translate(-236.65249,-11.879518)" />
    <path
       style="fill:#c3c3c3;fill-opacity:1;stroke:none;stroke-width:2;stroke-linecap:round;stroke-linejoin:round;stroke-miterlimit:4;stroke-dasharray:none;stroke-opacity:1;paint-order:markers fill stroke"
       d="M 101.3631,61.666874 A 50.000001,50.000001 0 0 0 51.363053,111.66692 50.000001,50.000001 0 0 0 101.3631,161.66646 50.000001,50.000001 0 0 0 151.36315,111.66692 V 61.666874 Z"
       id="circle841-4"
       inkscape:connector-curvature="0" />
    <path
       style="fill:#8f8f8f;fill-opacity:1;stroke:none;stroke-width:1.20693505;stroke-linecap:round;stroke-linejoin:round;stroke-miterlimit:4;stroke-dasharray:none;stroke-opacity:1;paint-order:markers fill stroke"
       d="m 133.13843,56.416555 c -2.11217,0 -3.81269,1.700516 -3.81269,3.812685 v 1.43764 h -27.96263 a 50,50 0 0 0 -50.000057,50.00005 50,50 0 0 0 50.000057,49.99953 50,50 0 0 0 50.00004,-49.99953 V 74.416489 h 24.72924 c 2.11217,0 3.81269,-1.7 3.81269,-3.812172 V 60.22924 c 0,-2.112169 -1.70052,-3.812685 -3.81269,-3.812685 z M 101.36311,69.16668 h 27.96263 v 1.437637 c 0,1.905516 1.38534,3.470926 3.20704,3.759978 0.0748,0.08841 0.1454,0.174308 0.22686,0.267168 1.12331,1.280586 2.83078,2.987773 4.83019,6.896735 1.99941,3.908965 4.29112,10.019991 5.39192,16.063103 0.45546,2.500339 0.70332,4.966669 0.8816,7.082769 v 6.99286 A 42.500176,42.500176 0 0 1 101.36311,154.16666 42.500176,42.500176 0 0 1 58.862863,111.66693 42.500176,42.500176 0 0 1 101.36311,69.16668 Z"
       id="rect1035"
       inkscape:connector-curvature="0" />
    <path
       style="fill:#040404;fill-opacity:1;stroke:none;stroke-width:7.55905533;stroke-linecap:round;stroke-linejoin:round;stroke-miterlimit:4;stroke-dasharray:none;stroke-opacity:1;paint-order:markers fill stroke"
       d="m 458.47852,58.980469 c -7.47931,0 -13.59229,5.64271 -14.33399,12.919922 V 83.783203 H 635.23438 V 73.390625 c 0,-7.983001 -6.42719,-14.410156 -14.41016,-14.410156 z M 338.38281,78.824219 A 188.97638,188.97638 0 0 0 183.56055,160.00586 l 26.43554,8.88476 c 0.57338,0.19274 1.12648,0.42619 1.66797,0.67969 a 160.63059,160.63059 0 0 1 126.71875,-62.40039 h 6.39844 L 381.22266,93.300781 343.18359,78.824219 Z m 105.76172,22.929691 v 12.29687 c 0.64777,6.53451 5.62763,11.74543 12.04492,12.76367 0.28271,0.33415 0.54955,0.6588 0.85743,1.00977 4.24557,4.84001 10.69899,11.29239 18.25585,26.0664 7.55683,14.77404 16.21837,37.87084 20.37891,60.71094 1.72139,9.45011 2.65818,18.77168 3.33203,26.76953 v 26.42969 A 160.63059,160.63059 0 0 1 338.38281,428.42969 160.63059,160.63059 0 0 1 217.55664,373.26367 l -27.07422,11.6836 A 188.97638,188.97638 0 0 0 338.38281,456.77539 188.97638,188.97638 0 0 0 527.35938,267.80078 V 127.01172 h 93.46484 c 7.98297,0 14.41016,-6.4252 14.41016,-14.4082 v -10.84961 z m -276.0625,84.80859 a 188.97638,188.97638 0 0 0 -17.8457,64.93359 l 28.10742,-3.2539 c 0.25222,-0.0292 0.5032,-0.0481 0.75391,-0.0684 a 160.63059,160.63059 0 0 1 16.11523,-52.49024 z m 11.83399,107.10352 -28.01758,3.24414 a 188.97638,188.97638 0 0 0 20.45117,60.23242 l 25.9707,-11.20703 a 160.63059,160.63059 0 0 1 -18.40429,-52.26953 z"
       transform="matrix(0.26458333,0,0,0.26458333,11.832771,40.811225)"
       id="path979"
       inkscape:connector-curvature="0" />
    <text
       xml:space="preserve"
       style="font-size:10.93610287px;line-height:1.25;font-family:'Accanthis ADF Std';-inkscape-font-specification:'Accanthis ADF Std, Normal';letter-spacing:0px;word-spacing:0px;writing-mode:lr-tb;stroke-width:0.26458332"
       x="-31.911932"
       y="109.97855"
       id="text830"><tspan
         sodipodi:role="line"
         id="tspan828"
         x="-31.911932"
         y="109.97855"
         style="stroke-width:0.26458332">tone-holes</tspan><tspan
         sodipodi:role="line"
         x="-31.911932"
         y="123.64868"
         style="stroke-width:0.26458332"
         id="tspan857">with</tspan><tspan
         sodipodi:role="line"
         x="-31.911932"
         y="137.31882"
         style="stroke-width:0.26458332"
         id="tspan859">total area: A</tspan></text>
    <text
       xml:space="preserve"
       style="font-size:10.93610287px;line-height:1.25;font-family:'Accanthis ADF Std';-inkscape-font-specification:'Accanthis ADF Std, Normal';letter-spacing:0px;word-spacing:0px;writing-mode:lr-tb;stroke-width:0.26458332"
       x="51.583939"
       y="49.013302"
       id="text834"><tspan
         sodipodi:role="line"
         id="tspan832"
         x="51.583939"
         y="49.013302"
         style="stroke-width:0.26458332">sound hole</tspan></text>
    <path
       style="fill:none;stroke:#000000;stroke-width:2;stroke-linecap:round;stroke-linejoin:miter;stroke-miterlimit:4;stroke-dasharray:none;stroke-opacity:1"
       d="m 109.23585,46.362639 c 3.53446,0.294538 7.06868,0.589056 8.94609,2.429545 1.87742,1.840489 2.09832,5.227678 2.13527,6.92128 0.0369,1.693602 -0.11029,1.693602 -0.25782,1.693602"
       id="path836"
       inkscape:connector-curvature="0"
       inkscape:path-effect="#path-effect838"
       inkscape:original-d="m 109.23585,46.362639 c 3.53448,0.294253 7.0687,0.588771 10.60265,0.883554 0.22114,3.386462 0.44204,6.773651 0.66267,10.160873 -0.14701,-2.65e-4 -0.29425,-2.65e-4 -0.44178,0"
       transform="translate(-1.987997,1.3253313)" />
    <path
       style="fill:none;stroke:#000000;stroke-width:2;stroke-linecap:round;stroke-linejoin:miter;stroke-miterlimit:4;stroke-dasharray:none;stroke-opacity:1"
       d="M 18.680316,116.60519 C 21.551946,105.26593 24.423497,93.926988 30.387445,88.625819 36.351392,83.32465 45.408071,84.060966 54.46426,84.797241"
       id="path862"
       inkscape:connector-curvature="0"
       inkscape:path-effect="#path-effect864"
       inkscape:original-d="m 18.680316,116.60519 c 2.871816,-11.33921 5.743367,-22.678155 8.614653,-34.016834 9.056446,0.73601 18.113125,1.472324 27.169291,2.208885" />
    <path
       style="fill:none;stroke:#000000;stroke-width:2;stroke-linecap:round;stroke-linejoin:miter;stroke-miterlimit:4;stroke-dasharray:none;stroke-opacity:1"
       d="m 18.680316,116.60519 c 6.626964,-1.47266 13.253622,-2.94525 18.077156,-3.64555 4.823534,-0.7003 7.98795,-0.62495 11.080132,-0.55133"
       id="path866"
       inkscape:connector-curvature="0"
       inkscape:path-effect="#path-effect868"
       inkscape:original-d="m 18.680316,116.60519 c 6.626921,-1.47285 13.253577,-2.94545 19.87997,-4.41777 3.018933,0.14699 6.185143,0.14699 9.277318,0.22089" />
    <path
       style="fill:none;stroke:#000000;stroke-width:2;stroke-linecap:round;stroke-linejoin:miter;stroke-miterlimit:4;stroke-dasharray:none;stroke-opacity:1"
       d="m 18.680316,116.60519 c 6.096581,8.87037 12.193199,17.74079 18.267799,21.7536 6.074601,4.01282 12.126853,3.16801 18.178811,2.32325"
       id="path870"
       inkscape:connector-curvature="0"
       inkscape:path-effect="#path-effect872"
       inkscape:original-d="m 18.680316,116.60519 c 6.096882,8.87016 12.1935,17.74058 18.289853,26.61126 6.052517,-0.84506 12.104768,-1.68987 18.156757,-2.53441"
       sodipodi:nodetypes="ccc" />
  </g>
</svg>
